<svg xmlns="http://www.w3.org/2000/svg" viewBox="0 0 64 64" role="img" aria-label="Hermes WebUI modern geometric caduceus logo">
  <defs>
    <linearGradient id="hermes-bg" x1="0" y1="0" x2="1" y2="1">
      <stop offset="0" stop-color="#12131f"/>
      <stop offset="1" stop-color="#0a0b13"/>
    </linearGradient>
    <linearGradient id="hermes-gold" x1="0" y1="8" x2="0" y2="58" gradientUnits="userSpaceOnUse">
      <stop offset="0" stop-color="#FFE08A"/>
      <stop offset="0.52" stop-color="#F5C542"/>
      <stop offset="1" stop-color="#D4961C"/>
    </linearGradient>
  </defs>
  <rect width="64" height="64" rx="16" fill="url(#hermes-bg)"/>
  <path d="M18 23 L32 14 L46 23 L38 23 L32 19 L26 23 Z" fill="url(#hermes-gold)"/>
  <path d="M11 28 L27 18 L31 21 L20 32 Z" fill="url(#hermes-gold)" opacity="0.95"/>
  <path d="M53 28 L37 18 L33 21 L44 32 Z" fill="url(#hermes-gold)" opacity="0.95"/>
  <path d="M16 34 L28 24 L31 27 L23 40 Z" fill="#FFE8A6" opacity="0.76"/>
  <path d="M48 34 L36 24 L33 27 L41 40 Z" fill="#FFE8A6" opacity="0.76"/>
  <rect x="29" y="16" width="6" height="38" rx="3" fill="url(#hermes-gold)"/>
  <path d="M29 33 C21 35 20 43 29 46" fill="none" stroke="#FFE8A6" stroke-width="3.2" stroke-linecap="round"/>
  <path d="M35 33 C43 35 44 43 35 46" fill="none" stroke="#D4961C" stroke-width="3.2" stroke-linecap="round"/>
  <circle cx="32" cy="13" r="4.2" fill="#FFE8A6"/>
  <circle cx="32" cy="13" r="2" fill="#F5C542"/>
</svg>
